<?xml version="1.0" encoding="UTF-8" standalone="no"?>
<!-- Created with Inkscape (http://www.inkscape.org/) -->

<svg
   width="173.28503mm"
   height="129.47253mm"
   viewBox="0 0 173.28503 129.47254"
   version="1.1"
   id="svg1"
   xml:space="preserve"
   sodipodi:docname="ZaLogiem.svg"
   inkscape:version="1.3.2 (091e20e, 2023-11-25, custom)"
   xmlns:inkscape="http://www.inkscape.org/namespaces/inkscape"
   xmlns:sodipodi="http://sodipodi.sourceforge.net/DTD/sodipodi-0.dtd"
   xmlns:xlink="http://www.w3.org/1999/xlink"
   xmlns="http://www.w3.org/2000/svg"
   xmlns:svg="http://www.w3.org/2000/svg"><sodipodi:namedview
     id="namedview1"
     pagecolor="#ffffff"
     bordercolor="#000000"
     borderopacity="0.25"
     inkscape:showpageshadow="2"
     inkscape:pageopacity="0.0"
     inkscape:pagecheckerboard="0"
     inkscape:deskcolor="#d1d1d1"
     inkscape:document-units="mm"
     inkscape:zoom="0.47802593"
     inkscape:cx="486.37529"
     inkscape:cy="78.447628"
     inkscape:window-width="1920"
     inkscape:window-height="1009"
     inkscape:window-x="-8"
     inkscape:window-y="-8"
     inkscape:window-maximized="1"
     inkscape:current-layer="svg1" /><defs
     id="defs1"><linearGradient
       id="linearGradient22"
       inkscape:collect="always"><stop
         style="stop-color:#7bb7ff;stop-opacity:1;"
         offset="0"
         id="stop22" /><stop
         style="stop-color:#cce0ff;stop-opacity:1;"
         offset="1"
         id="stop23" /></linearGradient><linearGradient
       id="linearGradient33"
       inkscape:collect="always"><stop
         style="stop-color:#ff6600;stop-opacity:1;"
         offset="0"
         id="stop33" /><stop
         style="stop-color:#003380;stop-opacity:1"
         offset="1"
         id="stop34" /></linearGradient><linearGradient
       inkscape:collect="always"
       xlink:href="#linearGradient33"
       id="linearGradient34"
       x1="67.470909"
       y1="140.65405"
       x2="106.91703"
       y2="127.47298"
       gradientUnits="userSpaceOnUse"
       gradientTransform="matrix(0.65290619,0,0,0.66515999,-12.817857,-31.271471)" /><radialGradient
       inkscape:collect="always"
       xlink:href="#linearGradient22"
       id="radialGradient23"
       cx="-46.407913"
       cy="61.862789"
       fx="-46.407913"
       fy="61.862789"
       r="8.9981356"
       gradientTransform="matrix(-2.647853,-0.44025104,0.50127165,-3.014857,-212.28411,191.55675)"
       gradientUnits="userSpaceOnUse" /></defs><path
     style="fill:#d4aa00;fill-opacity:1;stroke-width:0.511899;stroke-dasharray:0.511899, 0.511899;stroke-opacity:0.710744"
     d="m 34.55307,77.753736 c 0,0 13.132409,33.798134 53.242251,17.50988 C 127.90516,78.975355 101.43674,77.346529 81.483621,80.807787 61.530502,84.269041 62.141312,86.915883 49.314306,70.831227 36.487301,54.746568 34.55307,77.753736 34.55307,77.753736 Z"
     id="path14"
     sodipodi:nodetypes="csssc"
     inkscape:label="Ręka" /><path
     style="fill:#ffde52;fill-opacity:1;stroke-width:0.511899;stroke-dasharray:0.511899, 0.511899;stroke-opacity:0.710744"
     d="m 34.960277,76.73572 c 0,0 13.132409,33.79814 53.242251,17.50988 C 128.31237,77.957339 101.84395,76.328513 81.890827,79.789771 61.937709,83.251025 62.548518,85.897867 49.721513,69.813211 36.894508,53.728552 34.960277,76.73572 34.960277,76.73572 Z"
     id="path7"
     sodipodi:nodetypes="csssc"
     inkscape:label="Ręka" /><g
     inkscape:label="Logo"
     id="layer1-4"
     transform="translate(73.285028,29.377413)"><path
       id="path27"
       style="fill:url(#linearGradient34);fill-opacity:1;stroke-width:0.30108"
       inkscape:label="bg"
       d="M 98.157766,49.999998 A 49.078883,49.999999 0 0 1 49.078883,100 49.078883,49.999999 0 0 1 0,49.999998 49.078883,49.999999 0 0 1 49.078883,0 49.078883,49.999999 0 0 1 98.157766,49.999998 Z" /><path
       id="path12"
       style="display:inline;fill:#ff6600;stroke-width:0.310392"
       d="m 100,49.15889 c 0,7.01199 -1.394908,13.692072 -3.917437,19.767942 -2.522536,6.075877 -6.172699,11.547543 -10.683217,16.142714 -4.510517,4.595171 -9.967985,8.121517 -15.845321,10.88372 -6.623071,3.11268 -20.205518,4.651214 -19.40378,3.99096 C 78.939646,76.235307 57.547273,65.283072 47.820471,49.362941 39.355588,35.50823 31.398993,21.936307 51.62854,0.2167456 52.070543,-0.25781316 61.140433,1.0075927 67.192835,3.2236274 73.290997,5.4564166 80.2142,10.371281 84.893377,14.622807 89.653924,18.94827 93.560021,23.315073 96.082556,29.390946 98.605092,35.466818 100,42.1469 100,49.15889 Z"
       sodipodi:nodetypes="sssssssssss"
       inkscape:label="S" /><path
       style="font-size:35.2778px;font-family:'Trebuchet MS';-inkscape-font-specification:'Trebuchet MS';fill:#ffffff;fill-opacity:1;stroke-width:0.442874"
       d="m 27.880589,74.669876 q 2.294723,1.863684 2.294723,5.7055 0,2.059875 -1.460275,3.580252 -1.476327,1.504026 -3.65871,1.504026 -2.615662,0 -4.412921,-2.321438 -1.813307,-2.337782 -1.813307,-5.950728 0,-0.98089 0.417218,-2.223343 -4.172217,0 -4.172217,3.792768 0,2.909973 1.540513,4.479388 l -2.551467,1.307853 q -0.706075,-0.882793 -1.203531,-2.435867 -0.513498,-1.569424 -0.513498,-2.991715 0,-3.809121 1.700978,-5.525671 1.700978,-1.732912 5.407831,-1.732912 h 6.162043 q 2.26262,0 3.01683,-1.373242 h 1.524462 q 0,1.896388 -0.529549,2.844582 -0.529549,0.931842 -1.749123,1.340547 z m -6.466931,0.294269 q -0.320938,1.47133 -0.320938,2.059865 0,2.354133 1.18748,3.841816 1.18747,1.487681 2.808219,1.487681 2.67984,0 2.67984,-3.220584 0,-2.354133 -2.198434,-4.168778 z m 8.440715,-25.159803 v 6.833532 H 6.3455495 Q 6.1369306,52.272913 6.1369306,50.34383 q 0,-3.547548 1.5084199,-5.492975 1.4923686,-1.945436 4.2845475,-1.945436 1.636792,0 2.984737,1.242462 1.347945,1.242462 1.684927,2.746487 0.673972,-2.844573 2.230537,-4.136073 1.556554,-1.307854 4.236394,-1.307854 3.097067,0 4.942478,2.321438 1.845402,2.305086 1.845402,6.032463 z M 8.9130583,53.368241 h 6.7557767 q 0.09629,-1.029937 0.09629,-2.550314 0,-4.642877 -3.706853,-4.642877 -3.2575424,0 -3.2575424,4.266866 0,1.634815 0.1123307,2.926325 z m 9.2430587,0 h 8.970262 q 0.160475,-1.683864 0.160475,-2.58301 0,-3.073451 -1.123294,-4.479389 -1.139336,-1.422291 -3.610566,-1.422291 -2.294722,0 -3.385914,1.356891 -1.091191,1.340548 -1.091191,4.495741 z M 6.1690237,34.731339 q 0,-0.80106 0.5616516,-1.356892 0.545591,-0.572192 1.3158522,-0.572192 0.7863029,0 1.3479453,0.572192 0.545591,0.555832 0.545591,1.356892 0,0.784717 -0.545591,1.3569 -0.5616424,0.555831 -1.3479453,0.555831 -0.786303,0 -1.3319034,-0.555831 -0.5456004,-0.55584 -0.5456004,-1.3569 z M 29.854373,36.431546 H 15.235575 v 2.403189 H 12.668056 V 33.3254 H 29.854373 Z M 15.0751,27.276585 v 2.02717 h -2.407044 v -2.02717 H 9.0735329 L 7.9021041,24.170431 H 12.668056 V 19.364079 H 15.0751 v 4.806352 h 8.536993 q 2.166341,0 3.081026,-0.73566 0.914675,-0.752023 0.914675,-2.403181 0,-1.193414 -0.593745,-2.468573 l 2.679849,-0.457744 q 0.481414,1.929074 0.481414,4.23417 0,2.076217 -1.508419,3.514852 -1.524462,1.42229 -3.835227,1.42229 z"
       id="text28"
       aria-label="a Bit"
       inkscape:label="a Bit" /><path
       style="font-size:35.2777px;font-family:'Trebuchet MS';-inkscape-font-specification:'Trebuchet MS';fill:#000000;stroke-width:0.419186"
       d="m 66.839293,45.684375 q -3.76678,0 -6.075451,-2.057998 -2.32386,-2.073475 -2.32386,-5.446744 0,-3.558948 2.232727,-5.524106 2.21754,-1.965158 6.166584,-1.965158 3.933854,0 6.212148,2.011583 2.263106,2.011572 2.263106,5.477681 0,3.543479 -2.293483,5.524105 -2.293483,1.980637 -6.181771,1.980637 z m 0,-3.09474 q 6.121017,0 6.121017,-4.410002 0,-2.057998 -1.640371,-3.218527 -1.640373,-1.175997 -4.480646,-1.175997 -6.045074,0 -6.045074,4.394524 0,2.011583 1.609994,3.218526 1.609995,1.191476 4.43508,1.191476 z M 54.658012,18.636361 q -0.303772,0.897478 -0.303772,1.671161 0,1.346209 1.00245,2.228209 1.002449,0.866532 2.5365,0.866532 0.410093,0 0.850564,-0.07734 v -3.373267 h 2.430181 v 3.373263 h 13.836841 v 2.939999 H 61.173935 v 2.413897 h -2.430181 v -2.413897 q -3.11367,0 -4.890738,-1.562844 -1.77707,-1.562833 -1.77707,-4.131473 0,-1.284315 0.455659,-2.754319 z"
       id="text34"
       aria-label="of"
       inkscape:export-filename="abitofs.svg"
       inkscape:export-xdpi="25.4"
       inkscape:export-ydpi="25.4" /></g><g
     inkscape:groupmode="layer"
     id="layer2"
     inkscape:label="Dłoń"
     transform="translate(73.285028,29.377413)"><path
       style="fill:#d4aa00;stroke-width:0.751006;stroke-dasharray:0.751006, 0.751006;stroke-opacity:0.710744"
       d="m -41.338092,52.332926 c -3.774417,-1.419181 -6.380215,-4.270256 -11.493824,-12.57572 -5.075678,-8.243853 -9.057618,-19.147494 -14.253003,-39.02874622 -0.667995,-2.55624098 -1.124212,-5.17803198 -1.013818,-5.82620398 0.443383,-2.603288 2.692151,-4.154834 5.362698,-3.699995 2.773349,0.472348 3.32812,1.627268 8.301567,17.281828 2.839516,8.9376932 2.872743,9.0115142 3.524849,7.8294992 0.619132,-1.122305 0.5327,-1.534948 -1.453276,-6.9384822 -3.12313,-8.49748802 -7.644806,-23.4916228 -7.44247,-24.6796238 0.581262,-3.412837 4.632536,-4.949494 7.449832,-2.825732 1.222274,0.921393 3.128543,5.92917 6.836508,17.95949578 1.319359,4.28059802 2.456509,7.87393702 2.526995,7.98519402 0.07052,0.111265 0.455872,-0.03003 0.856385,-0.313985 0.660342,-0.468141 0.538659,-1.021288 -1.305331,-5.933536 -2.593412,-6.908654 -8.035687,-24.8803398 -7.855233,-25.9398608 0.236332,-1.387595 1.854205,-3.311024 3.125981,-3.716382 3.014292,-0.960746 4.985358,0.451876 6.597281,4.728107 2.5664,6.808325 6.480671,18.6192168 7.520086,22.69104878 0.600502,2.35234102 1.124801,4.34789702 1.165133,4.43457302 0.04027,0.08666 0.532458,0.07835 1.093625,-0.01858 l 1.020294,-0.176162 -1.793055,-5.016778 c -3.453784,-9.6633348 -7.080384,-21.5640618 -6.897889,-22.6355668 0.606973,-3.563795 4.904592,-5.086502 7.629947,-2.703406 1.679307,1.468407 8.259011,20.1850318 10.490136,29.8402368 0.556613,2.408693 0.908737,3.085491 2.046351,3.933289 1.771705,1.320318 3.053043,1.520492 4.159835,0.649865 0.797993,-0.627715 1.012652,-1.429261 2.143819,-8.00489402 l 1.257023,-7.30733698 1.371929,-1.018834 c 1.7339056,-1.287661 3.7716776,-1.3646108 5.4184876,-0.204606 2.36132,1.663299 2.360157,2.068514 -0.05279,18.484195 -4.122086,28.0433032 -6.4791986,34.2363512 -14.4943636,38.0823492 -3.312084,1.589277 -13.467907,5.062709 -15.475706,5.292917 -2.32574,0.266669 -4.579431,0.04436 -6.368009,-0.628151 z"
       id="path1" /><path
       style="fill:#ffde52;fill-opacity:1;stroke-width:0.751006;stroke-dasharray:0.751006, 0.751006;stroke-opacity:0.710744"
       d="m -40.673967,51.332576 c -3.774417,-1.419179 -6.380218,-4.270246 -11.493824,-12.57572 -5.07568,-8.243846 -9.057619,-19.14749 -14.253004,-39.02873922 -0.667995,-2.55624198 -1.124214,-5.17803098 -1.01382,-5.82620198 0.443384,-2.603292 2.692151,-4.1548338 5.362699,-3.699996 2.77334,0.472346 3.328122,1.627266 8.301576,17.281829 2.839507,8.9376932 2.872745,9.0115182 3.52484,7.8294962 0.619132,-1.122304 0.532701,-1.534947 -1.453277,-6.9384762 -3.123128,-8.49749202 -7.644805,-23.4916308 -7.442468,-24.6796288 0.581262,-3.412839 4.632536,-4.949491 7.449831,-2.825729 1.222274,0.921392 3.128544,5.929168 6.836509,17.9594898 1.319358,4.280602 2.456508,7.873942 2.526995,7.9852 0.07052,0.111266 0.455863,-0.03003 0.856384,-0.313986 0.660341,-0.46814 0.53866,-1.021291 -1.30533,-5.93354002 -2.593411,-6.90865398 -8.035688,-24.88033578 -7.855233,-25.93985778 0.23633,-1.387595 1.854204,-3.311024 3.125971,-3.716387 3.014292,-0.960746 4.985367,0.451881 6.597291,4.728114 2.5664,6.808325 6.48067,18.6192138 7.520085,22.6910478 0.600502,2.35234298 1.124801,4.347898 1.165134,4.434571 0.04027,0.08667 0.532457,0.07835 1.093626,-0.01858 l 1.020292,-0.176167 -1.793055,-5.016777 c -3.453784,-9.6633358 -7.080384,-21.5640658 -6.897889,-22.6355658 0.606974,-3.563799 4.904591,-5.086505 7.629948,-2.703408 1.679306,1.468408 8.259022,20.1850298 10.490136,29.8402368 0.556613,2.408691 0.908736,3.085489 2.046351,3.933282 1.771705,1.320324 3.053043,1.520497 4.159844,0.649866 0.797984,-0.627719 1.01265,-1.429263 2.14381,-8.004899 l 1.257022,-7.307334 1.3719226,-1.018838 c 1.733906,-1.2876598 3.771677,-1.3646058 5.418488,-0.204603 2.36132,1.663296 2.360157,2.068514 -0.05278,18.484192 -4.122094,28.0433082 -6.4792036,34.2363412 -14.4943696,38.0823502 -3.312083,1.589267 -13.467908,5.062709 -15.475707,5.292916 -2.32574,0.26667 -4.579431,0.04436 -6.36802,-0.628151 z"
       id="path2" /><path
       style="fill:url(#radialGradient23);stroke-width:0.752093;stroke-dasharray:0.752093, 0.752093;stroke-opacity:0.710744"
       d="m -68.103568,11.721957 c 0,0 -9.311894,8.448969 -1.807923,21.282406 7.503968,12.833436 17.036639,10.19976 17.036639,10.19976 0,0 -8.582053,-2.778124 -13.446858,-12.611457 -4.875494,-9.854942 -1.781858,-18.870709 -1.781858,-18.870709 z"
       id="path10"
       sodipodi:nodetypes="cscsc" /><path
       style="fill:#9bc7ff;fill-opacity:1;stroke-width:0.63625;stroke-dasharray:0.63625, 0.63625;stroke-opacity:0.710744"
       d="m -72.832974,33.29367 c 0,0 -3.252598,10.121875 7.691604,16.308697 10.944201,6.186823 16.822965,0.217845 16.822965,0.217845 0,0 -9.183544,0.718564 -16.277747,-5.28136 -7.094201,-5.999928 -8.236822,-11.245182 -8.236822,-11.245182 z"
       id="path11" /><path
       style="fill:#a1caff;fill-opacity:1;stroke-width:0.752093;stroke-dasharray:0.752093, 0.752093;stroke-opacity:0.710744"
       d="m -5.0602237,28.020706 c 0,0 12.5012475,-1.347321 13.9910407,-16.138779 1.489795,-14.7914557 -7.7662633,-18.2747729 -7.7662633,-18.2747729 0,0 5.145893,9.5739265 2.0270735,20.1173259 -3.11882353,10.543401 -8.2518529,14.296226 -8.2518509,14.296226 z"
       id="path13" /><path
       style="fill:#d4aa00;fill-opacity:0.67451;stroke-width:0.590082;stroke-dasharray:0.590082, 0.590082;stroke-opacity:0.710744"
       d="m -16.845459,7.1203348 c 0,0 -2.358224,-3.635778 -11.672225,5.1925752 -9.314002,8.828351 -1.994739,18.404876 -1.994739,18.404876 0,0 -5.141513,-10.656701 3.00176,-18.072474 8.143277,-7.4157712 10.665205,-5.5249772 10.665204,-5.5249772 z"
       id="path22"
       sodipodi:nodetypes="czczc" /></g></svg>
