<?xml version="1.0" encoding="UTF-8" standalone="no"?>
<!-- Created with Inkscape (http://www.inkscape.org/) -->

<svg
   width="100mm"
   height="100mm"
   viewBox="0 0 100 100"
   version="1.1"
   id="svg1"
   inkscape:version="1.3.2 (091e20e, 2023-11-25, custom)"
   sodipodi:docname="abitofs.svg"
   xmlns:inkscape="http://www.inkscape.org/namespaces/inkscape"
   xmlns:sodipodi="http://sodipodi.sourceforge.net/DTD/sodipodi-0.dtd"
   xmlns:xlink="http://www.w3.org/1999/xlink"
   xmlns="http://www.w3.org/2000/svg"
   xmlns:svg="http://www.w3.org/2000/svg">
  <sodipodi:namedview
     id="namedview1"
     pagecolor="#ffffff"
     bordercolor="#000000"
     borderopacity="0.25"
     inkscape:showpageshadow="2"
     inkscape:pageopacity="0.0"
     inkscape:pagecheckerboard="0"
     inkscape:deskcolor="#d1d1d1"
     inkscape:document-units="mm"
     inkscape:zoom="2.0485264"
     inkscape:cx="212.59184"
     inkscape:cy="191.11299"
     inkscape:window-width="1920"
     inkscape:window-height="1009"
     inkscape:window-x="-8"
     inkscape:window-y="-8"
     inkscape:window-maximized="1"
     inkscape:current-layer="layer1" />
  <defs
     id="defs1">
    <linearGradient
       id="linearGradient33"
       inkscape:collect="always">
      <stop
         style="stop-color:#ff6600;stop-opacity:1;"
         offset="0"
         id="stop33" />
      <stop
         style="stop-color:#552200;stop-opacity:1"
         offset="1"
         id="stop34" />
    </linearGradient>
    <linearGradient
       inkscape:collect="always"
       xlink:href="#linearGradient33"
       id="linearGradient34"
       x1="72.845047"
       y1="137.94063"
       x2="118.50159"
       y2="130.06464"
       gradientUnits="userSpaceOnUse"
       gradientTransform="matrix(0.65290619,0,0,0.66515999,-12.817857,-31.271471)" />
  </defs>
  <g
     inkscape:label="Warstwa 1"
     inkscape:groupmode="layer"
     id="layer1">
    <path
       id="path27"
       style="fill:url(#linearGradient34);stroke-width:0.30108"
       inkscape:label="bg"
       d="M 98.157766,49.999998 A 49.078883,49.999999 0 0 1 49.078883,100 49.078883,49.999999 0 0 1 0,49.999998 49.078883,49.999999 0 0 1 49.078883,0 49.078883,49.999999 0 0 1 98.157766,49.999998 Z" />
    <path
       id="path12"
       style="display:inline;fill:#ff6600;stroke-width:0.310392"
       d="m 100,49.15889 c 0,7.01199 -1.394908,13.692072 -3.917437,19.767942 -2.522536,6.075877 -6.172699,11.547543 -10.683217,16.142714 -4.510517,4.595171 -9.881382,8.313842 -15.845321,10.88372 -5.963948,2.569873 -19.40378,3.99096 -19.40378,3.99096 C 76.584812,73.635366 57.547273,65.283072 47.820471,49.362941 39.355588,35.50823 36.137185,26.708415 50.143224,0.53964031 50.750021,-0.59409496 61.228894,0.65374984 67.192835,3.2236274 73.156781,5.7935049 80.2142,10.371281 84.893377,14.622807 89.653924,18.94827 93.560021,23.315073 96.082556,29.390946 98.605092,35.466818 100,42.1469 100,49.15889 Z"
       sodipodi:nodetypes="sssssssssss"
       inkscape:label="S" />
    <path
       style="font-size:35.2778px;font-family:'Trebuchet MS';-inkscape-font-specification:'Trebuchet MS';fill:#ffffff;fill-opacity:1;stroke-width:0.310391"
       d="m 17.222104,68.856517 q 1.608271,1.306175 1.608271,3.998736 0,1.443677 -1.023443,2.509243 -1.034693,1.054106 -2.56423,1.054106 -1.833204,0 -3.092824,-1.626995 -1.270868,-1.638449 -1.270868,-4.170606 0,-0.687463 0.29241,-1.558244 -2.9241251,0 -2.9241251,2.658186 0,2.039473 1.0796783,3.139408 L 7.5387611,75.776968 Q 7.0439039,75.158257 6.6952585,74.069775 6.3353703,72.969834 6.3353703,71.973012 q 0,-2.669647 1.1921412,-3.872702 1.1921414,-1.214522 3.7901135,-1.214522 h 4.318707 q 1.585772,0 2.114365,-0.962446 h 1.068429 q 0,1.329096 -0.371138,1.993644 -0.371138,0.653087 -1.225884,0.939531 z m -4.53239,0.20624 q -0.224932,1.031191 -0.224932,1.44367 0,1.649909 0.832253,2.692561 0.832246,1.042651 1.968159,1.042651 1.878183,0 1.878183,-2.257167 0,-1.649909 -1.540787,-2.921715 z m 5.915729,-17.63341 v 4.789325 H 2.129133 q -0.1462119,-3.059211 -0.1462119,-4.411221 0,-2.486322 1.0571858,-3.849787 1.0459361,-1.363471 3.0028528,-1.363471 1.147156,0 2.0918721,0.870787 0.9447161,0.870788 1.1808918,1.924893 0.4723581,-1.993637 1.5632864,-2.898793 1.090921,-0.916618 2.969104,-0.916618 2.170599,0 3.463967,1.626995 1.293362,1.615534 1.293362,4.22789 z M 3.9285881,53.927129 h 4.73483 q 0.067484,-0.721838 0.067484,-1.787404 0,-3.25399 -2.5979723,-3.25399 -2.2830695,0 -2.2830695,2.99046 0,1.145771 0.078728,2.050934 z m 6.4780569,0 h 6.286866 q 0.11247,-1.180147 0.11247,-1.810319 0,-2.154048 -0.787268,-3.139409 -0.798511,-0.996822 -2.530488,-0.996822 -1.608271,0 -2.37304,0.950986 -0.764768,0.939532 -0.764768,3.150869 z M 2.0054138,40.865336 q 0,-0.561428 0.3936371,-0.950986 0.382381,-0.401025 0.9222235,-0.401025 0.5510854,0 0.9447161,0.401025 0.382381,0.389558 0.382381,0.950986 0,0.549974 -0.382381,0.950992 -0.3936307,0.389558 -0.9447161,0.389558 -0.5510855,0 -0.9334731,-0.389558 Q 2.0054138,41.426764 2.0054138,40.865336 Z M 18.605443,42.056937 H 8.3597645 v 1.684291 H 6.5603028 V 39.879975 H 18.605443 Z M 8.2472949,35.640624 v 1.420755 H 6.5603028 V 35.640624 H 4.0410577 L 3.2200543,33.463656 h 3.3402485 v -3.368563 h 1.6869921 v 3.368563 h 5.9832061 q 1.518294,0 2.159357,-0.515592 0.641056,-0.52706 0.641056,-1.684285 0,-0.836412 -0.41613,-1.730115 l 1.878189,-0.320813 q 0.337402,1.352004 0.337402,2.967545 0,1.45513 -1.057185,2.463407 -1.068429,0.996821 -2.687943,0.996821 z"
       id="text28"
       aria-label="a Bit"
       inkscape:label="a Bit" />
    <path
       style="font-size:35.2777px;font-family:'Trebuchet MS';-inkscape-font-specification:'Trebuchet MS';fill:#000000;stroke-width:0.310391"
       d="m 33.088032,63.637321 q -2.789156,0 -4.498638,-1.523868 -1.720729,-1.535329 -1.720729,-4.033105 0,-2.635264 1.653249,-4.090388 1.642003,-1.455124 4.566118,-1.455124 2.912868,0 4.599857,1.4895 1.675743,1.489492 1.675743,4.056012 0,2.62381 -1.698236,4.090388 -1.698236,1.466585 -4.577364,1.466585 z m 0,-2.291536 q 4.532378,0 4.532378,-3.265437 0,-1.523868 -1.214632,-2.383195 -1.214633,-0.870781 -3.317746,-0.870781 -4.476145,0 -4.476145,3.253976 0,1.4895 1.192139,2.383195 1.192139,0.882242 3.284006,0.882242 z m -9.01977,-17.736478 q -0.224932,0.664548 -0.224932,1.23743 0,0.996816 0.742276,1.649903 0.742275,0.641634 1.878181,0.641634 0.303658,0 0.62981,-0.05727 v -2.497775 h 1.799455 v 2.497775 H 39.138701 V 49.25796 H 28.893052 v 1.787398 H 27.093597 V 49.25796 q -2.305553,0 -3.621404,-1.157226 -1.315852,-1.157218 -1.315852,-3.059197 0,-0.950986 0.337398,-2.039467 z"
       id="text34"
       aria-label="of"
       inkscape:export-filename="abitofs.svg"
       inkscape:export-xdpi="25.4"
       inkscape:export-ydpi="25.4" />
  </g>
</svg>
