<?xml version="1.0" encoding="UTF-8" standalone="no"?>
<!-- Created with Inkscape (http://www.inkscape.org/) -->

<svg
   width="193.18066mm"
   height="79.707825mm"
   viewBox="0 0 193.18066 79.707825"
   version="1.1"
   id="svg1"
   sodipodi:docname="madeWith.svg"
   inkscape:version="1.3.2 (091e20e, 2023-11-25, custom)"
   xmlns:inkscape="http://www.inkscape.org/namespaces/inkscape"
   xmlns:sodipodi="http://sodipodi.sourceforge.net/DTD/sodipodi-0.dtd"
   xmlns="http://www.w3.org/2000/svg"
   xmlns:svg="http://www.w3.org/2000/svg">
  <sodipodi:namedview
     id="namedview1"
     pagecolor="#888888"
     bordercolor="#000000"
     borderopacity="0.25"
     inkscape:showpageshadow="2"
     inkscape:pageopacity="0.0"
     inkscape:pagecheckerboard="0"
     inkscape:deskcolor="#d1d1d1"
     inkscape:document-units="mm"
     inkscape:zoom="1.4894257"
     inkscape:cx="241.0325"
     inkscape:cy="182.95642"
     inkscape:window-width="1920"
     inkscape:window-height="1009"
     inkscape:window-x="-8"
     inkscape:window-y="-8"
     inkscape:window-maximized="1"
     inkscape:current-layer="svg1" />
  <defs
     id="defs1" />
  <g
     inkscape:groupmode="layer"
     id="layer2"
     inkscape:label="grey">
    <path
       d="m 172.75918,28.289196 c -2.20133,0 -4.09785,0.79572 -5.68958,2.38745 -1.55787,1.55787 -2.33681,3.4376 -2.33681,5.63893 v 12.90309 c 0,2.7432 0.96504,5.08003 2.89543,7.01043 1.9304,1.93039 4.26723,2.89594 7.01043,2.89594 h 7.46776 v 8.8899 h -6.29936 v -6.95978 h -11.07426 v 18.03404 h 28.44788 v -20.62458 -0.0512 c 0,-2.8448 -1.01588,-5.2828 -3.04788,-7.3148 -2.03199,-2.032 -4.48729,-3.04839 -7.36596,-3.04839 h -6.95978 v -8.68681 h 6.29936 v 6.95978 h 11.07426 v -10.00766 c 0,-2.20133 -0.79572,-4.08106 -2.38745,-5.63893 -1.55787,-1.59173 -3.43761,-2.38745 -5.63893,-2.38745 z"
       style="font-size:50.8px;font-family:Satisfontory;-inkscape-font-specification:Satisfontory;display:inline;fill:#4d4d4d;stroke-width:0.5"
       id="path38-1" />
    <path
       d="m 145.36204,57.097476 h 9.33734 l -1.70847,8.66155 h -8.66196 z"
       style="font-size:50.8px;font-family:Satisfontory;-inkscape-font-specification:Satisfontory;display:inline;fill:#4d4d4d;stroke-width:0.391067"
       id="path37-2" />
    <path
       d="m 134.99202,39.615126 v 39.732385 h 8.66155 V 48.276676 h 13.07195 l 2.02656,-8.66155 h -15.09851 -5.08577 z"
       style="font-size:50.8px;font-family:Satisfontory;-inkscape-font-specification:Satisfontory;display:inline;fill:#4d4d4d;stroke-width:0.391067"
       id="path36-7" />
    <path
       d="m 105.23936,28.547516 v 42.418078 c 0,2.302931 0.81301,4.267065 2.43861,5.892663 1.65947,1.659466 3.64038,2.489254 5.94331,2.489254 h 20.06596 V 36.929426 c 0,-2.30293 -0.82979,-4.26706 -2.48926,-5.89266 -1.6256,-1.65947 -3.58973,-2.48925 -5.89266,-2.48925 z m 11.07426,11.07426 h 6.29936 v 28.65148 h -6.29936 z"
       style="font-size:50.8px;font-family:Satisfontory;-inkscape-font-specification:Satisfontory;display:inline;fill:#4d4d4d;stroke-width:0.5"
       id="path35-8" />
    <path
       d="M 86.273942,48.817936 V 79.70783 H 77.61847 V 50.167756 Z"
       style="font-size:50.8px;font-family:Satisfontory;-inkscape-font-specification:Satisfontory;display:inline;fill:#4d4d4d;stroke-width:0.390793"
       id="path34-8" />
    <path
       d="m 71.608033,40.003336 c 0,0 -0.01436,5.67847 -0.02371,8.65547 h 25.409806 v -8.65547 z"
       style="font-size:50.8px;font-family:Satisfontory;-inkscape-font-specification:Satisfontory;display:inline;fill:#4d4d4d;stroke-width:0.419239"
       id="path33-8" />
    <path
       d="m 66.28073,40.003336 v 8.65547 h 8.634873 c 0.0081,-2.977 0.0206,-8.65547 0.0206,-8.65547 z"
       style="font-size:50.8px;font-family:Satisfontory;-inkscape-font-specification:Satisfontory;display:inline;fill:#4d4d4d;stroke-width:0.390793"
       id="path32-3" />
    <path
       d="M 74.915603,40.078246 H 66.28073 V 79.70783 h 8.655472 c -0.09659,-0.797861 -0.04916,-26.263404 -0.0206,-39.629584 z"
       style="font-size:50.8px;font-family:Satisfontory;-inkscape-font-specification:Satisfontory;display:inline;fill:#4d4d4d;stroke-width:0.441501"
       id="path31-8" />
    <path
       d="M 36.800426,28.907836 V 79.70783 h 28.244788 v -12.903084 -1.42266 c 0,-0.94826 -0.271004,-2.25192 -0.81287,-3.91139 -0.541867,-1.69333 -1.371655,-3.28528 -2.489254,-4.77541 0.677332,-0.6096 1.236117,-1.37125 1.676383,-2.28565 0.474133,-0.94827 0.812759,-1.8289 1.015959,-2.6417 0.2032,-0.8128 0.338964,-1.65936 0.406694,-2.5399 0.101599,-0.9144 0.152445,-1.52403 0.152445,-1.82883 0.03387,-0.33866 0.05064,-0.59289 0.05064,-0.76222 v -11.02362 c 0,-1.86266 -0.660476,-3.43733 -1.981274,-4.72426 -1.320799,-1.3208 -2.895462,-1.98127 -4.72426,-1.98127 z m 11.07426,11.07426 h 6.096268 v 6.65489 l 0.05064,0.40669 c 0.06773,0.23707 0.05096,0.5584 -0.05064,0.9648 -0.06773,0.4064 -0.203493,0.82994 -0.406693,1.27021 -0.2032,0.4064 -0.609448,0.79587 -1.219047,1.1684 -0.609599,0.37253 -1.371766,0.64354 -2.286165,0.81287 l -1.523938,11.07426 c 0.745066,0 1.388765,0.0508 1.930631,0.15244 0.575732,0.0677 1.151294,0.22027 1.727026,0.45734 0.575733,0.23707 1.01605,0.60925 1.32085,1.11724 0.3048,0.47414 0.457336,1.10106 0.457336,1.87999 v 2.69235 h -6.096268 z"
       style="font-size:50.8px;font-family:Satisfontory;-inkscape-font-specification:Satisfontory;display:inline;fill:#4d4d4d;stroke-width:0.5"
       id="path30-3" />
    <path
       d="M 9.4246988,39.263476 0.61762783,79.66151 H 9.4246988 l 5.2515302,-24.158114 2.060503,9.49377 h -2.464467 l -2.787474,8.806663 h 7.190802 l 1.292849,5.857681 H 28.7751 L 19.968442,39.263476 h -1.737085 -7.069572 z"
       style="font-size:50.8px;font-family:Satisfontory;-inkscape-font-specification:Satisfontory;display:inline;fill:#4d4d4d;stroke-width:0.397618"
       id="path29-4" />
  </g>
  <path
     style="font-size:22.5778px;font-family:Satisfontory;-inkscape-font-specification:Satisfontory;display:inline;fill:#ff8331;stroke-width:0.5"
     d="M 37.609981,22.5778 V 5.10258 l 4.92196,1.35467 V 22.5778 Z M 45.083233,0 q 1.53529,0 2.619025,1.10631 1.106312,1.08374 1.106312,2.61903 V 22.5778 H 43.886609 V 4.92196 H 36.165001 V 22.5778 h -4.92196 V 0 Z m 20.432901,22.5778 h -4.92196 l -0.72249,-3.27378 h -4.018848 l 1.557868,-4.92196 H 58.78795 L 57.636482,9.07628 54.701368,22.5778 H 49.779407 L 54.701368,0 h 0.970845 3.951115 0.970846 z M 75.269742,0 q 1.557869,0 2.641603,1.10631 1.106312,1.08374 1.106312,2.61903 V 22.5778 H 66.4644 V 0 Z m -3.883381,17.65584 h 2.709336 V 4.92196 H 71.386361 Z M 85.045918,4.92196 v 12.73388 h 8.579564 L 92.474014,22.5778 H 85.045918 82.15596 80.123957 V 0 h 2.032003 2.889958 8.579564 l -1.151468,4.92196 z m 5.305783,9.93423 h -4.92196 l 0.587022,-4.92196 h 5.305784 z M 116.72886,0 V 17.47522 L 111.8069,16.12055 V 0 Z m 1.44498,0 h 4.92196 v 22.5778 h -13.84019 q -1.53529,0 -2.6416,-1.10631 -1.08374,-1.08374 -1.08374,-2.61903 V 0 h 4.92196 v 17.65584 h 7.72161 z m 6.05083,22.5778 V 0 h 4.92196 v 22.5778 z m 12.44036,0 V 5.77992 l 4.92196,-0.76765 V 22.5778 Z M 130.20778,4.92196 V 0 h 17.47521 V 4.92196 Z M 157.57208,0 q 1.55787,0 2.6416,1.10631 1.10631,1.08374 1.10631,2.61903 V 22.5778 h -4.92196 v -7.72161 h -2.70933 v 7.72161 h -4.92196 V 0 h 4.92196 v 9.93423 h 2.70933 V 0 Z"
     id="text2"
     aria-label="Made with"
     inkscape:label="MadeWith" />
  <g
     inkscape:groupmode="layer"
     id="layer3"
     inkscape:label="white">
    <path
       d="m 164.59405,-140.6544 c -2.20133,0 -4.09785,0.79572 -5.68958,2.38745 -1.55787,1.55787 -2.33681,3.4376 -2.33681,5.63893 v 12.90309 c 0,2.7432 0.96504,5.08003 2.89543,7.01043 1.9304,1.93039 4.26723,2.89594 7.01043,2.89594 h 7.46776 v 8.8899 h -6.29936 v -6.95978 h -11.07426 v 18.03404 h 28.44788 v -20.62458 -0.0512 c 0,-2.8448 -1.01588,-5.2828 -3.04788,-7.3148 -2.03199,-2.032 -4.48729,-3.04839 -7.36596,-3.04839 h -6.95978 v -8.68681 h 6.29936 v 6.95978 h 11.07426 v -10.00766 c 0,-2.20133 -0.79572,-4.08106 -2.38745,-5.63893 -1.55787,-1.59173 -3.43761,-2.38745 -5.63893,-2.38745 z"
       style="font-size:50.8px;font-family:Satisfontory;-inkscape-font-specification:Satisfontory;display:inline;fill:#ffffff;stroke-width:0.5"
       id="path38"
       transform="translate(7.5475007,168.2574)" />
    <path
       d="m 137.19691,-111.84612 h 9.33734 l -1.70847,8.66155 h -8.66196 z"
       style="font-size:50.8px;font-family:Satisfontory;-inkscape-font-specification:Satisfontory;display:inline;fill:#ffffff;stroke-width:0.391067"
       id="path37"
       transform="translate(7.5475007,168.2574)" />
    <path
       d="m 126.82689,-129.32847 v 39.732385 h 8.66155 v -31.070835 h 13.07195 l 2.02656,-8.66155 h -15.09851 -5.08577 z"
       style="font-size:50.8px;font-family:Satisfontory;-inkscape-font-specification:Satisfontory;display:inline;fill:#ffffff;stroke-width:0.391067"
       id="path36"
       transform="translate(7.5475007,168.2574)" />
    <path
       d="m 97.074231,-140.39608 v 42.418078 c 0,2.302931 0.81301,4.267065 2.43861,5.892663 1.659469,1.659466 3.640379,2.489254 5.943309,2.489254 h 20.06596 v -42.418085 c 0,-2.30293 -0.82979,-4.26706 -2.48926,-5.89266 -1.6256,-1.65947 -3.58973,-2.48925 -5.89266,-2.48925 z m 11.074259,11.07426 h 6.29936 v 28.65148 h -6.29936 z"
       style="font-size:50.8px;font-family:Satisfontory;-inkscape-font-specification:Satisfontory;display:inline;fill:#ffffff;stroke-width:0.5"
       id="path35"
       transform="translate(7.5475007,168.2574)" />
    <path
       d="m 78.108813,-120.12566 v 30.889894 h -8.655472 v -29.540074 z"
       style="font-size:50.8px;font-family:Satisfontory;-inkscape-font-specification:Satisfontory;display:inline;fill:#ffffff;stroke-width:0.390793"
       id="path34"
       transform="translate(7.5475007,168.2574)" />
    <path
       d="m 63.442904,-128.94026 c 0,0 -0.01436,5.67847 -0.02371,8.65547 H 88.829 v -8.65547 z"
       style="font-size:50.8px;font-family:Satisfontory;-inkscape-font-specification:Satisfontory;display:inline;fill:#ffffff;stroke-width:0.419239"
       id="path33"
       transform="translate(7.5475007,168.2574)" />
    <path
       d="m 58.115601,-128.94026 v 8.65547 h 8.634873 c 0.0081,-2.977 0.0206,-8.65547 0.0206,-8.65547 z"
       style="font-size:50.8px;font-family:Satisfontory;-inkscape-font-specification:Satisfontory;display:inline;fill:#ffffff;stroke-width:0.390793"
       id="path32"
       transform="translate(7.5475007,168.2574)" />
    <path
       d="m 66.750474,-128.86535 h -8.634873 v 39.629584 h 8.655472 c -0.09659,-0.797861 -0.04916,-26.263404 -0.0206,-39.629584 z"
       style="font-size:50.8px;font-family:Satisfontory;-inkscape-font-specification:Satisfontory;display:inline;fill:#ffffff;stroke-width:0.441501"
       id="path31"
       transform="translate(7.5475007,168.2574)" />
    <path
       d="m 28.635297,-140.03576 v 50.799994 h 28.244788 v -12.903084 -1.42266 c 0,-0.94826 -0.271004,-2.25192 -0.81287,-3.91139 -0.541867,-1.69333 -1.371655,-3.28528 -2.489254,-4.77541 0.677332,-0.6096 1.236117,-1.37125 1.676383,-2.28565 0.474133,-0.94827 0.812759,-1.8289 1.015959,-2.6417 0.2032,-0.8128 0.338964,-1.65936 0.406694,-2.5399 0.101599,-0.9144 0.152445,-1.52403 0.152445,-1.82883 0.03387,-0.33866 0.05064,-0.59289 0.05064,-0.76222 v -11.02362 c 0,-1.86266 -0.660476,-3.43733 -1.981274,-4.72426 -1.320799,-1.3208 -2.895462,-1.98127 -4.72426,-1.98127 z m 11.07426,11.07426 h 6.096268 v 6.65489 l 0.05064,0.40669 c 0.06773,0.23707 0.05096,0.5584 -0.05064,0.9648 -0.06773,0.4064 -0.203493,0.82994 -0.406693,1.27021 -0.2032,0.4064 -0.609448,0.79587 -1.219047,1.1684 -0.609599,0.37253 -1.371766,0.64354 -2.286165,0.81287 l -1.523938,11.07426 c 0.745066,0 1.388765,0.0508 1.930631,0.15244 0.575732,0.0677 1.151294,0.22027 1.727026,0.45734 0.575733,0.23707 1.01605,0.60925 1.32085,1.11724 0.3048,0.47414 0.457336,1.10106 0.457336,1.87999 v 2.69235 h -6.096268 z"
       style="font-size:50.8px;font-family:Satisfontory;-inkscape-font-specification:Satisfontory;display:inline;fill:#ffffff;stroke-width:0.5"
       id="path30"
       transform="translate(7.5475007,168.2574)" />
    <path
       d="m 1.2595695,-129.68012 -8.8070701,40.398034 h 8.8070701 l 5.25153,-24.158114 2.0605031,9.49377 H 6.1071355 l -2.787474,8.806663 h 7.1908025 l 1.292849,5.857681 h 8.806658 L 11.803313,-129.68012 H 10.066228 2.9966555 Z"
       style="font-size:50.8px;font-family:Satisfontory;-inkscape-font-specification:Satisfontory;display:inline;fill:#ffffff;stroke-width:0.397618"
       id="path29"
       transform="translate(7.5475007,168.2574)" />
  </g>
</svg>
