<?xml version="1.0" encoding="UTF-8" standalone="no"?>
<!-- Created with Inkscape (http://www.inkscape.org/) -->

<svg
   width="100mm"
   height="100.00012mm"
   viewBox="0 0 100 100.00012"
   version="1.1"
   id="svg1"
   sodipodi:docname="watermark.svg"
   inkscape:version="1.3.2 (091e20e, 2023-11-25, custom)"
   xmlns:inkscape="http://www.inkscape.org/namespaces/inkscape"
   xmlns:sodipodi="http://sodipodi.sourceforge.net/DTD/sodipodi-0.dtd"
   xmlns="http://www.w3.org/2000/svg"
   xmlns:svg="http://www.w3.org/2000/svg">
  <sodipodi:namedview
     id="namedview1"
     pagecolor="#ffffff"
     bordercolor="#000000"
     borderopacity="0.25"
     inkscape:showpageshadow="2"
     inkscape:pageopacity="0.0"
     inkscape:pagecheckerboard="0"
     inkscape:deskcolor="#d1d1d1"
     inkscape:document-units="mm"
     inkscape:zoom="1.4485269"
     inkscape:cx="57.989948"
     inkscape:cy="175.69574"
     inkscape:window-width="1920"
     inkscape:window-height="1009"
     inkscape:window-x="-8"
     inkscape:window-y="-8"
     inkscape:window-maximized="1"
     inkscape:current-layer="layer1" />
  <defs
     id="defs1" />
  <g
     inkscape:label="Warstwa 1"
     inkscape:groupmode="layer"
     id="layer1">
    <path
       style="fill:#d45500;stroke-width:0.260206;fill-opacity:0.1"
       id="path1"
       sodipodi:type="arc"
       sodipodi:cx="50"
       sodipodi:cy="50"
       sodipodi:rx="25"
       sodipodi:ry="25"
       sodipodi:start="0"
       sodipodi:end="6.2791684"
       sodipodi:open="true"
       sodipodi:arc-type="arc"
       d="M 75,50 A 25,25 0 0 1 50.025106,74.999987 25,25 0 0 1 25.00005,50.050211 25,25 0 0 1 49.924683,25.000113 25,25 0 0 1 74.999798,49.899578" />
    <path
       d="m 66.684535,31.389533 c 1.141637,1.929706 1.810551,4.174294 1.815394,6.584353 0.01447,7.200678 -5.800991,13.018873 -12.979569,13.026079 -1.280778,0.0013 -2.515641,-0.189966 -3.685047,-0.533561 4.149508,2.159357 6.994951,6.488515 7.015076,11.507567 4.8e-5,6.630282 -4.931989,12.075862 -11.313779,12.904638 0.818753,0.08009 1.648539,0.122282 2.488478,0.121441 C 63.822382,74.986195 74.999891,63.797412 74.999791,49.949899 74.970176,42.564858 71.763138,35.95004 66.684535,31.389533 Z"
       style="fill:#ff6600;stroke-width:0.260206;fill-opacity:0.1"
       id="path9" />
    <path
       d="m 53.223083,25.213683 c -6.103449,1.082696 -10.735994,6.404686 -10.723117,12.812396 0.01008,5.008329 2.857004,9.342476 7.014558,11.50524 0.809531,0.237683 1.585072,0.552227 2.320789,0.935085 1.169406,0.343595 2.404269,0.534845 3.685047,0.533561 7.178578,-0.0072 12.994039,-5.825401 12.979569,-13.026079 -0.0048,-2.410059 -0.673757,-4.654647 -1.815394,-6.584353 -3.671999,-3.297398 -8.323941,-5.513972 -13.461452,-6.17585 z"
       style="fill:#ff6600;stroke-width:0.218378;fill-opacity:0.1"
       id="path8" />
    <text
       xml:space="preserve"
       style="font-size:24.3534px;font-family:Satisfontory;-inkscape-font-specification:Satisfontory;fill:#000000;fill-opacity:0.05;stroke-width:0.239698"
       x="41.554024"
       y="58.201954"
       id="text2"
       transform="scale(1.009162,0.99092118)"><tspan
         sodipodi:role="line"
         id="tspan2"
         style="font-size:24.3534px;fill:#000000;fill-opacity:0.05;stroke-width:0.239698"
         x="41.554024"
         y="58.201954">S</tspan></text>
    <text
       xml:space="preserve"
       style="font-size:24.3534px;font-family:Satisfontory;-inkscape-font-specification:Satisfontory;fill:#ffffff;fill-opacity:0.1;stroke-width:0.239698"
       x="42.779934"
       y="57.326294"
       id="text1"
       transform="scale(1.009162,0.99092118)"><tspan
         sodipodi:role="line"
         id="tspan1"
         style="font-size:24.3534px;fill:#ffffff;fill-opacity:0.1;stroke-width:0.239698"
         x="42.779934"
         y="57.326294">S</tspan></text>
  </g>
</svg>
