<?xml version="1.0" encoding="UTF-8" standalone="no"?>
<!-- Created with Inkscape (http://www.inkscape.org/) -->

<svg
   width="25mm"
   height="23.149963mm"
   viewBox="0 0 25 23.149963"
   version="1.1"
   id="svg1"
   xml:space="preserve"
   inkscape:version="1.3.2 (091e20e, 2023-11-25, custom)"
   sodipodi:docname="watermark.svg"
   inkscape:export-filename="..\..\..\Stas\Stas\profil.svg"
   inkscape:export-xdpi="96"
   inkscape:export-ydpi="96"
   xmlns:inkscape="http://www.inkscape.org/namespaces/inkscape"
   xmlns:sodipodi="http://sodipodi.sourceforge.net/DTD/sodipodi-0.dtd"
   xmlns:xlink="http://www.w3.org/1999/xlink"
   xmlns="http://www.w3.org/2000/svg"
   xmlns:svg="http://www.w3.org/2000/svg"><sodipodi:namedview
     id="namedview1"
     pagecolor="#ffffff"
     bordercolor="#000000"
     borderopacity="0.25"
     inkscape:showpageshadow="2"
     inkscape:pageopacity="0.0"
     inkscape:pagecheckerboard="0"
     inkscape:deskcolor="#d1d1d1"
     inkscape:document-units="mm"
     inkscape:zoom="1.0242632"
     inkscape:cx="289.47638"
     inkscape:cy="106.90612"
     inkscape:window-width="1920"
     inkscape:window-height="1009"
     inkscape:window-x="-8"
     inkscape:window-y="-8"
     inkscape:window-maximized="1"
     inkscape:current-layer="layer1" /><defs
     id="defs1"><linearGradient
       id="linearGradient2"
       inkscape:collect="always"><stop
         style="stop-color:#ff6600;stop-opacity:0.05;"
         offset="0"
         id="stop1" /><stop
         style="stop-color:#ff6600;stop-opacity:0;"
         offset="1"
         id="stop2" /></linearGradient><linearGradient
       id="linearGradient9"
       inkscape:collect="always"><stop
         style="stop-color:#ffffff;stop-opacity:0.2;"
         offset="0"
         id="stop9" /><stop
         style="stop-color:#ffffff;stop-opacity:0;"
         offset="1"
         id="stop10" /></linearGradient><linearGradient
       id="linearGradient4"
       inkscape:collect="always"><stop
         style="stop-color:#ff6600;stop-opacity:0.05;"
         offset="0"
         id="stop4" /><stop
         style="stop-color:#ff6600;stop-opacity:0;"
         offset="1"
         id="stop5" /></linearGradient><linearGradient
       inkscape:collect="always"
       xlink:href="#linearGradient4"
       id="linearGradient5"
       x1="77.201164"
       y1="122.41141"
       x2="105.49238"
       y2="105.04826"
       gradientUnits="userSpaceOnUse"
       gradientTransform="matrix(0.09416303,0,0,0.09416303,3.2449579,1.7458722)" /><linearGradient
       inkscape:collect="always"
       xlink:href="#linearGradient2"
       id="linearGradient8"
       x1="105.65115"
       y1="106.42609"
       x2="153.69788"
       y2="78.269684"
       gradientUnits="userSpaceOnUse"
       gradientTransform="matrix(0.09416303,0,0,0.09416303,3.2449579,1.7458722)" /><linearGradient
       inkscape:collect="always"
       xlink:href="#linearGradient9"
       id="linearGradient10"
       x1="62.770733"
       y1="66.64547"
       x2="67.678734"
       y2="80.594521"
       gradientUnits="userSpaceOnUse"
       gradientTransform="matrix(0.07324885,0,0,0.07324885,5.3005587,3.9289768)" /></defs><g
     inkscape:label="Warstwa 1"
     inkscape:groupmode="layer"
     id="layer1"><path
       id="ellipse3"
       style="display:inline;fill:url(#linearGradient5);stroke-width:1.32047"
       d="m 17.468103,11.574982 a 4.6004465,4.6004556 0 0 1 -4.600447,4.600455 4.6004465,4.6004556 0 0 1 -4.600447,-4.600455 4.6004465,4.6004556 0 0 1 4.600447,-4.6004563 4.6004465,4.6004556 0 0 1 4.600447,4.6004563 z" /><path
       id="ellipse4"
       style="display:inline;fill:url(#linearGradient8);fill-opacity:1;stroke-width:1.32047"
       d="m 17.468103,11.574982 c 0,2.540761 -2.11989,4.540256 -4.448462,4.580829 -2.05338,0.04917 1.398316,-0.554503 1.399749,-2.432976 0.002,-2.615105 -3.465081,-1.605796 -3.480378,-4.5236915 -0.0062,-1.1773419 0.658265,-2.2246179 1.928644,-2.2246178 0.158797,0 0.315715,0.00804 0.470368,0.023752 0.154654,0.015706 0.307043,0.039072 0.456782,0.069713 0.149739,0.030641 0.296827,0.068557 0.440881,0.1133625 0.144054,0.044805 0.285073,0.0965 0.422669,0.1546992 0.275196,0.1163979 0.536708,0.258812 0.781453,0.424159 0.244745,0.165347 0.472724,0.3536271 0.680854,0.5617567 0.832517,0.8325189 1.34744,1.9826329 1.34744,3.2530139 z"
       sodipodi:nodetypes="scssssssssss" /><path
       d="m 8.3431808,9.9418723 0.1204171,-0.044748 q 0.1379322,-0.051257 0.1737306,0.045076 0.024815,0.066776 -0.010208,0.1233977 -0.03543,0.05553 -0.1219116,0.08766 l -0.1401216,0.05207 q -0.094144,0.03498 -0.1553357,-0.02575 -0.054847,0.103856 -0.1314755,0.132332 L 7.9534802,10.35828 Q 7.8330633,10.40303 7.7268929,10.3453 7.6214109,10.28607 7.569747,10.147048 7.491641,9.9368654 7.574717,9.7178678 7.658478,9.4973689 7.8412931,9.4294329 q 0.1401216,-0.052071 0.2409142,0.021356 0.024225,-0.1024425 0.1128955,-0.1353934 0.048167,-0.017899 0.091304,9.538e-4 0.044231,0.018448 0.06091,0.06333 0.01139,0.030652 0.00974,0.079854 l -0.00106,0.034032 z m -0.3953423,0.1531417 0.027367,-0.01017 q 0.089765,-0.03336 0.092067,-0.1176868 l 0.00625,-0.2178591 q 0.00149,-0.042915 -0.00786,-0.068093 -0.010984,-0.029557 -0.048677,-0.040467 -0.036598,-0.011317 -0.077102,0.00373 -0.079913,0.029696 -0.1208692,0.1508153 -0.040956,0.1211189 -0.00394,0.2207366 0.041901,0.112754 0.1327607,0.07899 z M 8.9635787,9.0298327 q 0.043566,-0.033632 0.081881,-0.04787 0.1269851,-0.047189 0.2411953,0.01876 0.1138033,0.064855 0.169942,0.2159231 Q 9.5652132,9.508931 9.400318,9.7558417 9.342654,9.8420567 9.257267,9.8737871 l -0.1039966,0.038646 q -0.1083753,0.040273 -0.2138873,-0.00897 -0.017094,0.09481 -0.1156173,0.1314219 -0.047072,0.01749 -0.091304,-9.58e-4 -0.044231,-0.01845 -0.060504,-0.062235 -0.012204,-0.032841 -0.010554,-0.082043 l 0.00106,-0.034032 0.038453,-1.3012753 6.519e-4,-0.035127 q 0.00589,-0.141726 0.1131696,-0.1815927 0.049262,-0.018306 0.093493,1.392e-4 0.044919,0.016946 0.061191,0.060734 0.012611,0.033936 0.010554,0.082043 l -6.518e-4,0.035127 z m -0.018512,0.6173566 q 0.08077,0.04972 0.1541152,0.022465 0.052546,-0.019527 0.077687,-0.062508 0.035304,-0.059217 0.042828,-0.1529612 0.00862,-0.094151 -0.014976,-0.1576438 -0.018307,-0.049261 -0.05816,-0.069336 -0.040259,-0.021169 -0.086237,-0.00408 -0.1039965,0.038646 -0.1090354,0.2161865 z M 9.9206431,9.35567 10.044344,9.3097013 q 0.137932,-0.051257 0.174137,0.04617 0.02482,0.066777 -0.01062,0.1223032 -0.03433,0.055119 -0.121911,0.087663 L 9.9118976,9.6305198 Q 9.815564,9.6663184 9.7450892,9.6476556 9.6757096,9.6285868 9.6504876,9.560715 9.6370635,9.5245906 9.6393052,9.460218 l 0.015464,-0.5115709 6.518e-4,-0.035126 q 0.00439,-0.142414 0.116047,-0.1839079 0.045978,-0.017086 0.090209,0.00136 0.045326,0.018041 0.061191,0.060734 0.013018,0.03503 0.010309,0.1182643 z M 9.7128528,8.3539616 q 0.063493,-0.023595 0.1239595,0.00502 0.061155,0.027109 0.084749,0.090602 0.023594,0.063493 -0.00461,0.1250541 -0.027516,0.06006 -0.091008,0.083655 -0.063493,0.023594 -0.1246474,-0.00351 -0.060467,-0.028611 -0.084061,-0.092103 -0.023594,-0.063493 0.00392,-0.1235527 0.028204,-0.061562 0.091696,-0.085156 z m 0.8358512,0.086822 0.03394,-0.012611 q 0.139027,-0.051664 0.175232,0.045764 0.02481,0.066777 -0.01062,0.1223026 -0.03543,0.055526 -0.121912,0.087663 l -0.07991,0.029697 -0.01285,0.414668 0.122607,-0.045562 q 0.139027,-0.051664 0.175232,0.045764 0.02482,0.066777 -0.01061,0.1223031 -0.03434,0.055119 -0.121912,0.087663 l -0.195951,0.072818 q -0.0832,0.030917 -0.146697,0.010908 -0.06241,-0.020415 -0.08681,-0.086097 -0.01505,-0.040503 -0.01365,-0.097088 l 0.0029,-0.055896 0.01079,-0.3665603 -0.01642,0.0061 q -0.122608,0.045562 -0.158,-0.049677 -0.02522,-0.067872 0.0091,-0.1229905 0.03502,-0.056621 0.1226,-0.089165 l 0.05036,-0.018713 0.0047,-0.1649662 0.0011,-0.034031 q 0.0063,-0.1406314 0.116861,-0.1817183 0.04488,-0.016679 0.08802,0.00217 0.04383,0.017353 0.05969,0.060046 0.01546,0.041599 0.01059,0.115668 z m 0.628136,-0.250864 q 0.158732,-0.058986 0.297964,0.00389 0.140328,0.062473 0.198094,0.2179203 0.04353,0.117133 0.03301,0.2531041 -0.01092,0.1348753 -0.07068,0.2355721 -0.04025,0.066036 -0.09504,0.1063322 -0.05411,0.038795 -0.163576,0.079475 -0.178436,0.066309 -0.256699,0.046803 -0.184116,-0.046201 -0.25734,-0.2432473 -0.07729,-0.207993 0.01614,-0.4158882 0.09343,-0.2078951 0.298137,-0.2839671 z m 0.06038,0.2429343 q -0.08101,0.030103 -0.118088,0.1348313 -0.03708,0.104728 -0.0013,0.2010616 0.04719,0.1269852 0.1895,0.074101 0.0832,-0.030917 0.10896,-0.099047 0.04312,-0.1119544 0.0028,-0.2203296 -0.02319,-0.062398 -0.07355,-0.087288 -0.05036,-0.02489 -0.108383,-0.00333 z M 12.208273,7.824072 12.359342,7.767933 q 0.139027,-0.051664 0.175232,0.045764 0.02481,0.066777 -0.01061,0.1223026 -0.03434,0.055119 -0.121911,0.087663 l -0.201425,0.074851 -0.04119,1.3944869 q -0.0056,0.1727547 -0.115041,0.213435 -0.04817,0.017899 -0.09199,5.484e-4 -0.04383,-0.017353 -0.0601,-0.061141 -0.0118,-0.031747 -0.01018,-0.1145731 l 0.04045,-1.3294266 -0.07444,0.027662 q -0.139028,0.051665 -0.17442,-0.043574 -0.02522,-0.067871 0.0091,-0.1229904 0.03502,-0.056621 0.1226,-0.089165 l 0.124796,-0.046375 0.0117,-0.3943049 q 0.0066,-0.1968085 0.07759,-0.3041695 0.07167,-0.1088623 0.235879,-0.1698826 l 0.124796,-0.046375 q 0.140121,-0.052071 0.17592,0.044263 0.02563,0.068966 -0.0094,0.1255866 -0.03502,0.056621 -0.1226,0.089165 l -0.03284,0.012204 q -0.09195,0.034171 -0.131764,0.091324 -0.03871,0.056746 -0.04189,0.1588414 z"
       id="text5"
       style="font-size:25.4px;font-family:'Harlow Solid Italic';-inkscape-font-specification:'Harlow Solid Italic, ';display:inline;fill:url(#linearGradient10);fill-opacity:1;stroke-width:1.88326"
       aria-label="abitof" /><path
       d="m 12.97643,14.004251 q -0.341125,0 -0.63428,-0.09594 -0.287824,-0.101272 -0.501027,-0.282495 -0.213203,-0.181222 -0.325135,-0.421077 -0.04264,-0.08528 -0.0053,-0.154572 0.04264,-0.07462 0.138582,-0.101272 0.07462,-0.02132 0.143912,0.01599 0.07462,0.03731 0.111932,0.111933 0.07995,0.154571 0.234523,0.277164 0.154572,0.122591 0.367776,0.191882 0.213202,0.06396 0.469047,0.06396 0.282493,0 0.501026,-0.09061 0.218534,-0.09594 0.341127,-0.271834 0.127921,-0.181223 0.127921,-0.437065 0,-0.325137 -0.239854,-0.559661 -0.239854,-0.234522 -0.751542,-0.298483 -0.623618,-0.07462 -0.975403,-0.383765 -0.351786,-0.314474 -0.351786,-0.767532 0,-0.325135 0.170563,-0.564988 0.175892,-0.2398537 0.479707,-0.3677757 0.303815,-0.133252 0.69824,-0.133252 0.293154,0 0.533008,0.095941 0.239854,0.090611 0.415746,0.2451847 0.181222,0.149242 0.293155,0.330464 0.0533,0.08528 0.03198,0.165233 -0.01599,0.07995 -0.09061,0.122593 -0.07995,0.03731 -0.165233,0.01066 -0.07995,-0.02665 -0.122592,-0.101271 -0.07995,-0.122592 -0.202543,-0.229194 -0.117262,-0.111931 -0.287824,-0.175892 -0.170563,-0.06396 -0.410416,-0.06929 -0.421077,0 -0.676921,0.181222 -0.255843,0.175893 -0.255843,0.517018 0,0.181223 0.09594,0.335795 0.09594,0.149243 0.314475,0.261174 0.223863,0.106602 0.596969,0.159903 0.666259,0.09594 0.986065,0.410415 0.325134,0.309146 0.325134,0.810172 0,0.287825 -0.106601,0.511688 -0.101272,0.223864 -0.293155,0.378436 -0.186553,0.149243 -0.442397,0.229194 -0.250513,0.07995 -0.538337,0.07995 z"
       id="text1"
       style="font-size:56.6048px;font-family:Comfortaa;-inkscape-font-specification:Comfortaa;display:inline;fill:#ffffff;fill-opacity:0.2;stroke-width:2.09845"
       aria-label="S" /></g></svg>
